<svg xmlns="http://www.w3.org/2000/svg" viewBox="0 0 52 52"><path id="tax-free" d="M26,0A26,26,0,1,0,52,26,26,26,0,0,0,26,0Zm0,49A23,23,0,1,1,49,26,23,23,0,0,1,26,49ZM38.64,21.19v6.15a1,1,0,1,1-2,0V23.27l-8.22,7.2a1,1,0,0,1-1.33,0l-5-4.41-6.3,4.2v4H37a1,1,0,0,1,0,2H13.83V16.18a1,1,0,0,1,2,0V27.85L21.66,24a1,1,0,0,1,1.22.08l4.88,4.34,7.18-6.28H31.45a1,1,0,1,1,0-2h6.18a.71.71,0,0,1,.21,0l.17,0a.71.71,0,0,1,.14.1,1.18,1.18,0,0,1,.18.13l0,0s0,.09.07.13a.64.64,0,0,1,.1.18h0A.89.89,0,0,1,38.64,21.19Z"/></svg>