<svg xmlns="http://www.w3.org/2000/svg" viewBox="0 0 25 22"><defs><style>.cls-1{fill-rule:evenodd;}</style></defs><title>ut</title><g id="Layer_2" data-name="Layer 2"><g id="icons"><path id="fund-default" class="cls-1" d="M17.64,0H20.5a1,1,0,0,1,1,1V16.4a1,1,0,0,1-1,1H17.64a1,1,0,0,1-1-1V1A1,1,0,0,1,17.64,0ZM10.57,6.4v10a1,1,0,0,0,1,1h2.86a1,1,0,0,0,1-1V6.4a1,1,0,0,0-1-1H11.57A1,1,0,0,0,10.57,6.4ZM4.5,11.2v5.2a1,1,0,0,0,1,1H8.36a1,1,0,0,0,1-1V11.2a1,1,0,0,0-1-1H5.5A1,1,0,0,0,4.5,11.2ZM1,22H24a1,1,0,0,0,0-2H1a1,1,0,0,0-1,1H0A1,1,0,0,0,1,22Z"/></g></g></svg>